<svg width="14" height="17" viewBox="0 0 14 17" fill="none" xmlns="http://www.w3.org/2000/svg">
<path d="M12.5714 1.42857C12.5714 2.98214 12.253 4.35714 11.6161 5.55357C10.9851 6.74405 10.1935 7.65476 9.24107 8.28571C10.1935 8.91667 10.9851 9.83036 11.6161 11.0268C12.253 12.2173 12.5714 13.5893 12.5714 15.1429H13.4286C13.5119 15.1429 13.5804 15.1696 13.6339 15.2232C13.6875 15.2768 13.7143 15.3452 13.7143 15.4286V16C13.7143 16.0833 13.6875 16.1518 13.6339 16.2054C13.5804 16.2589 13.5119 16.2857 13.4286 16.2857H0.285714C0.202381 16.2857 0.133929 16.2589 0.0803571 16.2054C0.0267857 16.1518 0 16.0833 0 16V15.4286C0 15.3452 0.0267857 15.2768 0.0803571 15.2232C0.133929 15.1696 0.202381 15.1429 0.285714 15.1429H1.14286C1.14286 13.5893 1.45833 12.2173 2.08929 11.0268C2.72619 9.83036 3.52083 8.91667 4.47321 8.28571C3.52083 7.65476 2.72619 6.74405 2.08929 5.55357C1.45833 4.35714 1.14286 2.98214 1.14286 1.42857H0.285714C0.202381 1.42857 0.133929 1.40179 0.0803571 1.34821C0.0267857 1.29464 0 1.22619 0 1.14286V0.571428C0 0.488095 0.0267857 0.419642 0.0803571 0.366071C0.133929 0.312499 0.202381 0.285713 0.285714 0.285713H13.4286C13.5119 0.285713 13.5804 0.312499 13.6339 0.366071C13.6875 0.419642 13.7143 0.488095 13.7143 0.571428V1.14286C13.7143 1.22619 13.6875 1.29464 13.6339 1.34821C13.5804 1.40179 13.5119 1.42857 13.4286 1.42857H12.5714ZM11.4286 1.42857H2.28571C2.28571 2.65476 2.53869 3.79762 3.04464 4.85714H10.6696C11.1756 3.79762 11.4286 2.65476 11.4286 1.42857ZM10.9196 12.2857C10.5982 11.4464 10.1637 10.7292 9.61607 10.1339C9.07441 9.53274 8.49702 9.10714 7.88393 8.85714H5.83036C5.21726 9.10714 4.63691 9.53274 4.08929 10.1339C3.54762 10.7292 3.11607 11.4464 2.79464 12.2857H10.9196Z" fill="white"/>
</svg>
