<svg width="16" height="15" viewBox="0 0 16 15" fill="none" xmlns="http://www.w3.org/2000/svg">
<path d="M8.39286 13.9821C8.28571 14.0893 8.15476 14.1429 8 14.1429C7.84524 14.1429 7.71429 14.0893 7.60714 13.9821L2.03571 8.60714C1.97619 8.55952 1.89286 8.48214 1.78571 8.375C1.68452 8.26786 1.52083 8.0744 1.29464 7.79464C1.06845 7.50893 0.866071 7.21726 0.6875 6.91964C0.508929 6.62202 0.348214 6.2619 0.205357 5.83929C0.0684524 5.41667 0 5.00595 0 4.60714C0 3.29762 0.377976 2.27381 1.13393 1.53571C1.88988 0.797619 2.93452 0.428571 4.26786 0.428571C4.63691 0.428571 5.01191 0.494047 5.39286 0.624999C5.77976 0.749999 6.13691 0.922618 6.46429 1.14286C6.79762 1.35714 7.08333 1.55952 7.32143 1.75C7.55952 1.94048 7.78571 2.14286 8 2.35714C8.21429 2.14286 8.44048 1.94048 8.67857 1.75C8.91667 1.55952 9.19941 1.35714 9.52679 1.14286C9.86012 0.922618 10.2173 0.749999 10.5982 0.624999C10.9851 0.494047 11.3631 0.428571 11.7321 0.428571C13.0655 0.428571 14.1101 0.797619 14.8661 1.53571C15.622 2.27381 16 3.29762 16 4.60714C16 5.92262 15.3185 7.2619 13.9554 8.625L8.39286 13.9821Z" fill="white"/>
</svg>
