<svg width="18" height="14" viewBox="0 0 18 14" fill="none" xmlns="http://www.w3.org/2000/svg">
<path d="M9.48214 5.64286V4.58928C9.48214 4.33928 9.39286 4.125 9.21429 3.94643C9.03571 3.76786 8.82143 3.67857 8.57143 3.67857C8.32143 3.67857 8.10714 3.76786 7.92857 3.94643C7.75 4.125 7.66071 4.33928 7.66071 4.58928V10.0536C7.66071 11.0952 7.28571 11.9851 6.53571 12.7232C5.78571 13.4613 4.88393 13.8304 3.83036 13.8304C2.77083 13.8304 1.86607 13.4583 1.11607 12.7143C0.372024 11.9643 0 11.0595 0 10V7.625H2.92857V9.96429C2.92857 10.2202 3.01786 10.4375 3.19643 10.6161C3.375 10.7887 3.58929 10.875 3.83929 10.875C4.08929 10.875 4.30357 10.7887 4.48214 10.6161C4.66071 10.4375 4.75 10.2202 4.75 9.96429V4.42857C4.75 3.41071 5.125 2.54167 5.875 1.82143C6.63095 1.10119 7.52976 0.741071 8.57143 0.741071C9.61905 0.741071 10.5179 1.10417 11.2679 1.83036C12.0179 2.55655 12.3929 3.43155 12.3929 4.45536V5.66964L10.6518 6.1875L9.48214 5.64286ZM14.2143 7.625H17.1429V10C17.1429 11.0595 16.7679 11.9643 16.0179 12.7143C15.2738 13.4583 14.372 13.8304 13.3125 13.8304C12.2589 13.8304 11.3571 13.4613 10.6071 12.7232C9.85714 11.9792 9.48214 11.0833 9.48214 10.0357V7.64286L10.6518 8.1875L12.3929 7.66964V10.0804C12.3929 10.3304 12.4821 10.5446 12.6607 10.7232C12.8393 10.8958 13.0536 10.9821 13.3036 10.9821C13.5536 10.9821 13.7679 10.8958 13.9464 10.7232C14.125 10.5446 14.2143 10.3304 14.2143 10.0804V7.625Z" fill="white"/>
</svg>
