<svg width="167" height="13" viewBox="0 0 167 13" fill="none" xmlns="http://www.w3.org/2000/svg">
<path d="M9.512 9.632C9.59733 9.632 9.672 9.66667 9.736 9.736L10.352 10.4C9.88267 10.944 9.312 11.368 8.64 11.672C7.97333 11.976 7.16533 12.128 6.216 12.128C5.39467 12.128 4.648 11.9867 3.976 11.704C3.304 11.416 2.73067 11.016 2.256 10.504C1.78133 9.98667 1.41333 9.368 1.152 8.648C0.890667 7.928 0.76 7.136 0.76 6.272C0.76 5.408 0.896 4.616 1.168 3.896C1.44 3.176 1.82133 2.55733 2.312 2.04C2.808 1.52267 3.4 1.12267 4.088 0.839999C4.776 0.551999 5.536 0.407999 6.368 0.407999C7.184 0.407999 7.904 0.538666 8.528 0.799999C9.152 1.06133 9.70133 1.416 10.176 1.864L9.664 2.576C9.632 2.62933 9.58933 2.67467 9.536 2.712C9.488 2.744 9.42133 2.76 9.336 2.76C9.24 2.76 9.12267 2.70933 8.984 2.608C8.84533 2.50133 8.664 2.384 8.44 2.256C8.216 2.128 7.936 2.01333 7.6 1.912C7.264 1.80533 6.85067 1.752 6.36 1.752C5.768 1.752 5.22667 1.856 4.736 2.064C4.24533 2.26667 3.82133 2.56267 3.464 2.952C3.112 3.34133 2.83733 3.816 2.64 4.376C2.44267 4.936 2.344 5.568 2.344 6.272C2.344 6.98667 2.44533 7.624 2.648 8.184C2.856 8.744 3.136 9.21867 3.488 9.608C3.84533 9.992 4.264 10.2853 4.744 10.488C5.22933 10.6907 5.752 10.792 6.312 10.792C6.65333 10.792 6.96 10.7733 7.232 10.736C7.50933 10.6933 7.76267 10.6293 7.992 10.544C8.22667 10.4587 8.44267 10.352 8.64 10.224C8.84267 10.0907 9.04267 9.93333 9.24 9.752C9.33067 9.672 9.42133 9.632 9.512 9.632ZM26.2395 7.744L24.4395 3.08C24.3862 2.94133 24.3302 2.78133 24.2715 2.6C24.2128 2.41333 24.1568 2.216 24.1035 2.008C23.9915 2.44 23.8768 2.8 23.7595 3.088L21.9595 7.744H26.2395ZM29.4715 12H28.2715C28.1328 12 28.0208 11.9653 27.9355 11.896C27.8502 11.8267 27.7862 11.7387 27.7435 11.632L26.6715 8.864H21.5275L20.4555 11.632C20.4235 11.728 20.3622 11.8133 20.2715 11.888C20.1808 11.9627 20.0688 12 19.9355 12H18.7355L23.3195 0.535999H24.8875L29.4715 12ZM44.8436 2.328C44.7956 2.408 44.7423 2.46933 44.6836 2.512C44.6303 2.54933 44.5636 2.568 44.4836 2.568C44.393 2.568 44.2863 2.52267 44.1636 2.432C44.041 2.34133 43.8863 2.24267 43.6996 2.136C43.5183 2.024 43.297 1.92267 43.0356 1.832C42.7796 1.74133 42.4676 1.696 42.0996 1.696C41.753 1.696 41.4463 1.744 41.1796 1.84C40.9183 1.93067 40.697 2.056 40.5156 2.216C40.3396 2.376 40.2063 2.56533 40.1156 2.784C40.025 2.99733 39.9796 3.22933 39.9796 3.48C39.9796 3.8 40.057 4.06667 40.2116 4.28C40.3716 4.488 40.5796 4.66667 40.8356 4.816C41.097 4.96533 41.3903 5.096 41.7156 5.208C42.0463 5.31467 42.3823 5.42667 42.7236 5.544C43.0703 5.66133 43.4063 5.79467 43.7316 5.944C44.0623 6.088 44.3556 6.272 44.6116 6.496C44.873 6.72 45.081 6.99467 45.2356 7.32C45.3956 7.64533 45.4756 8.04533 45.4756 8.52C45.4756 9.02133 45.3903 9.49333 45.2196 9.936C45.049 10.3733 44.7983 10.7547 44.4676 11.08C44.1423 11.4053 43.7396 11.6613 43.2596 11.848C42.785 12.0347 42.2436 12.128 41.6356 12.128C40.889 12.128 40.2116 11.9947 39.6036 11.728C38.9956 11.456 38.4756 11.0907 38.0436 10.632L38.4916 9.896C38.5343 9.83733 38.585 9.78933 38.6436 9.752C38.7076 9.70933 38.777 9.688 38.8516 9.688C38.921 9.688 38.9983 9.71733 39.0836 9.776C39.1743 9.82933 39.2756 9.89867 39.3876 9.984C39.4996 10.0693 39.6276 10.1627 39.7716 10.264C39.9156 10.3653 40.0783 10.4587 40.2596 10.544C40.4463 10.6293 40.657 10.7013 40.8916 10.76C41.1263 10.8133 41.3903 10.84 41.6836 10.84C42.0516 10.84 42.3796 10.7893 42.6676 10.688C42.9556 10.5867 43.1983 10.4453 43.3956 10.264C43.5983 10.0773 43.753 9.856 43.8596 9.6C43.9663 9.344 44.0196 9.05867 44.0196 8.744C44.0196 8.39733 43.9396 8.11467 43.7796 7.896C43.625 7.672 43.4196 7.48533 43.1636 7.336C42.9076 7.18667 42.6143 7.06133 42.2836 6.96C41.953 6.85333 41.617 6.74667 41.2756 6.64C40.9343 6.528 40.5983 6.4 40.2676 6.256C39.937 6.112 39.6436 5.92533 39.3876 5.696C39.1316 5.46667 38.9236 5.18133 38.7636 4.84C38.609 4.49333 38.5316 4.06667 38.5316 3.56C38.5316 3.15467 38.609 2.76267 38.7636 2.384C38.9236 2.00533 39.153 1.66933 39.4516 1.376C39.7556 1.08267 40.1263 0.848 40.5636 0.672C41.0063 0.495999 41.513 0.407999 42.0836 0.407999C42.7236 0.407999 43.305 0.509333 43.8276 0.712C44.3556 0.914666 44.8196 1.208 45.2196 1.592L44.8436 2.328ZM62.7391 10.736L62.7311 12H55.6671V0.535999H62.7311V1.8H57.2191V5.608H61.6831V6.824H57.2191V10.736H62.7391ZM90.8593 2.328C90.8113 2.408 90.7579 2.46933 90.6993 2.512C90.6459 2.54933 90.5793 2.568 90.4993 2.568C90.4086 2.568 90.3019 2.52267 90.1793 2.432C90.0566 2.34133 89.9019 2.24267 89.7153 2.136C89.5339 2.024 89.3126 1.92267 89.0513 1.832C88.7953 1.74133 88.4833 1.696 88.1153 1.696C87.7686 1.696 87.4619 1.744 87.1953 1.84C86.9339 1.93067 86.7126 2.056 86.5313 2.216C86.3553 2.376 86.2219 2.56533 86.1313 2.784C86.0406 2.99733 85.9953 3.22933 85.9953 3.48C85.9953 3.8 86.0726 4.06667 86.2273 4.28C86.3873 4.488 86.5953 4.66667 86.8513 4.816C87.1126 4.96533 87.4059 5.096 87.7313 5.208C88.0619 5.31467 88.3979 5.42667 88.7393 5.544C89.0859 5.66133 89.4219 5.79467 89.7473 5.944C90.0779 6.088 90.3713 6.272 90.6273 6.496C90.8886 6.72 91.0966 6.99467 91.2513 7.32C91.4113 7.64533 91.4913 8.04533 91.4913 8.52C91.4913 9.02133 91.4059 9.49333 91.2353 9.936C91.0646 10.3733 90.8139 10.7547 90.4833 11.08C90.1579 11.4053 89.7553 11.6613 89.2753 11.848C88.8006 12.0347 88.2593 12.128 87.6513 12.128C86.9046 12.128 86.2273 11.9947 85.6193 11.728C85.0113 11.456 84.4912 11.0907 84.0592 10.632L84.5073 9.896C84.5499 9.83733 84.6006 9.78933 84.6593 9.752C84.7233 9.70933 84.7926 9.688 84.8673 9.688C84.9366 9.688 85.0139 9.71733 85.0993 9.776C85.1899 9.82933 85.2913 9.89867 85.4033 9.984C85.5153 10.0693 85.6433 10.1627 85.7873 10.264C85.9313 10.3653 86.0939 10.4587 86.2753 10.544C86.4619 10.6293 86.6726 10.7013 86.9073 10.76C87.1419 10.8133 87.4059 10.84 87.6993 10.84C88.0673 10.84 88.3953 10.7893 88.6833 10.688C88.9713 10.5867 89.2139 10.4453 89.4113 10.264C89.6139 10.0773 89.7686 9.856 89.8753 9.6C89.9819 9.344 90.0353 9.05867 90.0353 8.744C90.0353 8.39733 89.9553 8.11467 89.7953 7.896C89.6406 7.672 89.4353 7.48533 89.1793 7.336C88.9233 7.18667 88.6299 7.06133 88.2993 6.96C87.9686 6.85333 87.6326 6.74667 87.2913 6.64C86.9499 6.528 86.6139 6.4 86.2833 6.256C85.9526 6.112 85.6593 5.92533 85.4033 5.696C85.1473 5.46667 84.9393 5.18133 84.7793 4.84C84.6246 4.49333 84.5473 4.06667 84.5473 3.56C84.5473 3.15467 84.6246 2.76267 84.7793 2.384C84.9393 2.00533 85.1686 1.66933 85.4673 1.376C85.7713 1.08267 86.1419 0.848 86.5793 0.672C87.0219 0.495999 87.5286 0.407999 88.0993 0.407999C88.7393 0.407999 89.3206 0.509333 89.8433 0.712C90.3713 0.914666 90.8353 1.208 91.2353 1.592L90.8593 2.328ZM109.435 1.84H105.723V12H104.179V1.84H100.459V0.535999H109.435V1.84ZM123.56 10.768C124.035 10.768 124.459 10.688 124.832 10.528C125.205 10.368 125.52 10.144 125.776 9.856C126.037 9.568 126.235 9.224 126.368 8.824C126.507 8.424 126.576 7.984 126.576 7.504V0.535999H128.12V7.504C128.12 8.16533 128.013 8.77867 127.8 9.344C127.592 9.90933 127.291 10.4 126.896 10.816C126.507 11.2267 126.029 11.5493 125.464 11.784C124.899 12.0187 124.264 12.136 123.56 12.136C122.856 12.136 122.221 12.0187 121.656 11.784C121.091 11.5493 120.611 11.2267 120.216 10.816C119.821 10.4 119.517 9.90933 119.304 9.344C119.096 8.77867 118.992 8.16533 118.992 7.504V0.535999H120.536V7.496C120.536 7.976 120.603 8.416 120.736 8.816C120.875 9.216 121.072 9.56 121.328 9.848C121.589 10.136 121.907 10.3627 122.28 10.528C122.659 10.688 123.085 10.768 123.56 10.768ZM148.838 6.272C148.838 7.13067 148.702 7.912 148.43 8.616C148.158 9.32 147.774 9.92267 147.278 10.424C146.782 10.9253 146.184 11.3147 145.486 11.592C144.792 11.864 144.024 12 143.182 12H138.902V0.535999H143.182C144.024 0.535999 144.792 0.674666 145.486 0.952C146.184 1.224 146.782 1.61333 147.278 2.12C147.774 2.62133 148.158 3.224 148.43 3.928C148.702 4.632 148.838 5.41333 148.838 6.272ZM147.246 6.272C147.246 5.568 147.15 4.93867 146.958 4.384C146.766 3.82933 146.494 3.36 146.142 2.976C145.79 2.592 145.363 2.29867 144.862 2.096C144.36 1.89333 143.8 1.792 143.182 1.792H140.454V10.744H143.182C143.8 10.744 144.36 10.6427 144.862 10.44C145.363 10.2373 145.79 9.94667 146.142 9.568C146.494 9.184 146.766 8.71467 146.958 8.16C147.15 7.60533 147.246 6.976 147.246 6.272ZM162.752 7.432V12H161.2V7.432L157 0.535999H158.36C158.499 0.535999 158.608 0.570666 158.688 0.639999C158.768 0.703999 158.838 0.789333 158.896 0.896L161.52 5.352C161.616 5.53867 161.704 5.71467 161.784 5.88C161.864 6.04 161.934 6.20267 161.992 6.368C162.051 6.20267 162.118 6.04 162.192 5.88C162.267 5.71467 162.35 5.53867 162.44 5.352L165.056 0.896C165.104 0.805333 165.171 0.722666 165.256 0.648C165.342 0.573333 165.451 0.535999 165.584 0.535999H166.952L162.752 7.432Z" fill="black"/>
</svg>
